<svg width="20.010223" height="25.000000" viewBox="0 0 20.0102 25" fill="none" xmlns="http://www.w3.org/2000/svg" xmlns:xlink="http://www.w3.org/1999/xlink">
	<desc>
			Created with Pixso.
	</desc>
	<defs/>
	<path id="Vector" d="M20.0051 21.6104L18.5736 5.49072C18.5429 5.13281 18.2413 4.86206 17.8885 4.86206L14.9438 4.86206C14.9029 2.17285 12.7045 0 10.0051 0C7.30573 0 5.10736 2.17285 5.06647 4.86206L2.12167 4.86206C1.76381 4.86206 1.46729 5.13281 1.4366 5.49072L0.00511169 21.6104C0.00511169 21.6309 0 21.6514 0 21.6719C0 23.5071 1.68201 25 3.75255 25L16.2577 25C18.3282 25 20.0102 23.5071 20.0102 21.6719C20.0102 21.6514 20.0102 21.6309 20.0051 21.6104ZM10.0051 1.38037C11.9427 1.38037 13.5225 2.93457 13.5634 4.86206L6.44682 4.86206C6.48773 2.93457 8.06749 1.38037 10.0051 1.38037ZM16.2577 23.6196L3.75255 23.6196C2.45398 23.6196 1.40082 22.7607 1.38037 21.7024L2.75052 6.24756L5.06136 6.24756L5.06136 8.34351C5.06136 8.72705 5.3681 9.03369 5.75153 9.03369C6.13496 9.03369 6.44171 8.72705 6.44171 8.34351L6.44171 6.24756L13.5634 6.24756L13.5634 8.34351C13.5634 8.72705 13.8701 9.03369 14.2536 9.03369C14.637 9.03369 14.9438 8.72705 14.9438 8.34351L14.9438 6.24756L17.2546 6.24756L18.6299 21.7024C18.6094 22.7607 17.5511 23.6196 16.2577 23.6196Z" fill="#242424" fill-opacity="1.000000" fill-rule="nonzero"/>
</svg>
