<svg width="31" height="31" viewBox="0 0 31 31" fill="none" xmlns="http://www.w3.org/2000/svg">
<path d="M15.4999 28.4166C22.6335 28.4166 28.4166 22.6335 28.4166 15.4999C28.4166 8.36624 22.6335 2.58325 15.4999 2.58325C8.36624 2.58325 2.58325 8.36624 2.58325 15.4999C2.58325 17.5662 3.06843 19.5191 3.93105 21.2511C4.1603 21.7113 4.2366 22.2374 4.1037 22.734L3.33437 25.6094C3.0004 26.8575 4.14231 27.9994 5.3905 27.6655L8.2658 26.8962C8.7625 26.7633 9.28857 26.8396 9.74881 27.0687C11.4807 27.9314 13.4336 28.4166 15.4999 28.4166Z" fill="white"/>
<path d="M19.375 15.4999C19.375 16.2133 19.9533 16.7916 20.6667 16.7916C21.3801 16.7916 21.9583 16.2133 21.9583 15.4999C21.9583 14.7865 21.3801 14.2083 20.6667 14.2083C19.9533 14.2083 19.375 14.7865 19.375 15.4999Z" fill="#303030"/>
<path d="M14.2083 15.4999C14.2083 16.2133 14.7865 16.7916 15.4999 16.7916C16.2133 16.7916 16.7916 16.2133 16.7916 15.4999C16.7916 14.7865 16.2133 14.2083 15.4999 14.2083C14.7865 14.2083 14.2083 14.7865 14.2083 15.4999Z" fill="#303030"/>
<path d="M9.0415 15.4999C9.0415 16.2133 9.61981 16.7916 10.3332 16.7916C11.0465 16.7916 11.6248 16.2133 11.6248 15.4999C11.6248 14.7865 11.0465 14.2083 10.3332 14.2083C9.61981 14.2083 9.0415 14.7865 9.0415 15.4999Z" fill="#303030"/>
</svg>
