<svg width="30" height="30" viewBox="0 0 30 30" fill="none" xmlns="http://www.w3.org/2000/svg">
<rect width="30" height="30" rx="6" fill="#FCBC40"/>
<g clip-path="url(#clip0_207_8107)">
<path fill-rule="evenodd" clip-rule="evenodd" d="M15.8357 14.9095L17.8572 16.0766C18.0545 16.1905 18.1183 16.4494 18.0072 16.6418C17.8928 16.8401 17.6457 16.9117 17.4427 16.7945L15.387 15.6077C15.1765 15.7711 14.9121 15.8684 14.625 15.8684C13.9383 15.8684 13.3816 15.3117 13.3816 14.625C13.3816 14.0836 13.7276 13.623 14.2105 13.4523V9.65415C14.2105 9.42367 14.4028 9.23684 14.625 9.23684C14.8539 9.23684 15.0395 9.4299 15.0395 9.65415V13.4523C15.5224 13.623 15.8684 14.0836 15.8684 14.625C15.8684 14.7229 15.8571 14.8182 15.8357 14.9095ZM14.625 22.5C18.9742 22.5 22.5 18.9742 22.5 14.625C22.5 10.2758 18.9742 6.75 14.625 6.75C10.2758 6.75 6.75 10.2758 6.75 14.625C6.75 18.9742 10.2758 22.5 14.625 22.5Z" fill="#202020"/>
</g>
<defs>
<clipPath id="clip0_207_8107">
<rect width="15.75" height="15.75" fill="white" transform="translate(6.75 6.75)"/>
</clipPath>
</defs>
</svg>
