<svg width="19" height="18" viewBox="0 0 19 18" fill="none" xmlns="http://www.w3.org/2000/svg">
<g clip-path="url(#clip0_202_5009)">
<path d="M18.5 9.09263L14.6086 6.85864C14.5379 7.33737 14.3999 7.8037 14.1988 8.24382L15.6773 9.09263L9.49998 12.6389L3.32267 9.09263L4.80126 8.24382C4.60008 7.80371 4.46212 7.33737 4.39147 6.85864L0.5 9.09263L3.74356 10.9547L0.5 12.8167L9.49998 17.9834L18.5 12.8167L15.2564 10.9547L18.5 9.09263ZM15.6773 12.8167L9.49998 16.3629L3.32267 12.8167L5.15487 11.7649L9.50002 14.2593L13.8452 11.7649L15.6773 12.8167Z" fill="#202020"/>
<path d="M11.5937 2.51095C10.8164 1.45739 10.0505 0.618179 10.0183 0.582976L9.49992 0.0166016L8.98158 0.582976C8.94936 0.618179 8.18343 1.45743 7.40622 2.51095C6.28553 4.03009 5.74072 5.20468 5.74072 6.03603C5.74072 8.11346 7.42709 9.86549 9.49992 9.86549C11.5728 9.86549 13.2591 8.11346 13.2591 6.03603C13.2591 5.20468 12.7144 4.03013 11.5937 2.51095ZM9.49992 8.46022C8.20198 8.46022 7.14603 7.33861 7.14603 6.03606C7.14603 5.8552 7.24584 5.0977 8.53015 3.35463C8.87691 2.88399 9.22673 2.45281 9.49996 2.12804C9.77101 2.45017 10.1176 2.87742 10.4627 3.34525C11.7535 5.09489 11.8538 5.85467 11.8538 6.03606C11.8538 7.33861 10.7979 8.46022 9.49992 8.46022Z" fill="#202020"/>
</g>
<defs>
<clipPath id="clip0_202_5009">
<rect width="18" height="18" fill="white" transform="translate(0.5)"/>
</clipPath>
</defs>
</svg>
