<svg width="30" height="30" viewBox="0 0 30 30" fill="none" xmlns="http://www.w3.org/2000/svg">
<rect width="30" height="30" rx="6" fill="#FCBC40"/>
<g clip-path="url(#clip0_207_8094)">
<path d="M20.8551 8.28857H8.39489C7.0723 8.28857 6 9.36087 6 10.6835V18.5667C6 19.8893 7.0723 20.9616 8.39489 20.9616H20.8551C22.1777 20.9616 23.25 19.8893 23.25 18.5667V10.6835C23.25 9.36087 22.1777 8.28857 20.8551 8.28857ZM12.0027 16.8393L8.64902 19.7004C8.41247 19.9022 8.05686 19.8742 7.85502 19.6374C7.65314 19.4008 7.6812 19.0452 7.91802 18.8434L11.2717 15.9823C11.5082 15.7804 11.8638 15.8085 12.0656 16.0453C12.2675 16.2818 12.2394 16.6374 12.0027 16.8393ZM14.625 15.7516C14.1764 15.7505 13.7416 15.6014 13.4017 15.3074L13.4019 15.3077L13.4009 15.3069C13.4011 15.3072 13.4014 15.3072 13.4017 15.3074L8.25604 10.8413C8.02088 10.6372 7.99585 10.2817 8.19964 10.0468C8.40371 9.81163 8.75933 9.78659 8.99416 9.99039L14.1412 14.4576C14.2512 14.5555 14.4325 14.6262 14.625 14.6251C14.8172 14.6257 14.9954 14.5569 15.1115 14.4557L15.114 14.4535L20.2558 9.99043C20.4907 9.78663 20.8463 9.81166 21.0504 10.0468C21.2541 10.2817 21.2291 10.6373 20.994 10.8414L15.8469 15.3088C15.5081 15.5997 15.0738 15.751 14.625 15.7516ZM21.3952 19.6374C21.1933 19.8742 20.8377 19.9022 20.6012 19.7004L17.2476 16.8393C17.0108 16.6374 16.9828 16.2818 17.1846 16.0453C17.3865 15.8085 17.7421 15.7805 17.9786 15.9823L21.3323 18.8434C21.569 19.0452 21.5971 19.4008 21.3952 19.6374Z" fill="#202020"/>
</g>
<defs>
<clipPath id="clip0_207_8094">
<rect width="17.25" height="17.25" fill="white" transform="translate(6 6)"/>
</clipPath>
</defs>
</svg>
