<svg width="17" height="17" viewBox="0 0 17 17" fill="none" xmlns="http://www.w3.org/2000/svg">
<g id="Frame" clip-path="url(#clip0_215_8008)">
<g id="Group">
<path id="Vector" d="M14.9934 1.82525H14.5547V1.13718C14.5547 0.502278 14.0508 -0.0310059 13.4156 -0.0310059H12.3209C11.6859 -0.0310059 11.1797 0.502244 11.1797 1.13718V1.82525H5.69532V1.13718C5.69532 0.502278 5.18907 -0.0310059 4.55413 -0.0310059H3.45938C2.8242 -0.0310059 2.32031 0.502244 2.32031 1.13718V1.82525H1.88156C0.841759 1.82879 0.000675 2.67244 0 3.71207V13.701C0.0016875 14.7388 0.84375 15.579 1.88156 15.5784H14.9934C16.0313 15.5791 16.8734 14.7388 16.875 13.701V3.71207C16.8743 2.67244 16.0333 1.82882 14.9934 1.82525ZM12.0234 1.13718C12.0234 0.967387 12.1512 0.812745 12.3209 0.812745H13.4156C13.5854 0.812745 13.7109 0.967387 13.7109 1.13718V3.6815H12.0234V1.13718ZM3.16406 1.13718C3.16406 0.967387 3.28945 0.812745 3.45938 0.812745H4.55416C4.72382 0.812745 4.85157 0.967387 4.85157 1.13718V3.6815H3.16406V1.13718ZM1.88156 2.669H2.32031V4.09743C2.31387 4.32724 2.495 4.5188 2.72491 4.52525H5.284C5.51485 4.52153 5.69913 4.33118 5.69532 4.10033V2.669H11.1797V4.09743C11.1743 4.32828 11.3572 4.51998 11.5881 4.52525H14.1455C14.3754 4.5213 14.5585 4.33186 14.5547 4.10202V2.669H14.9934C15.5673 2.67203 16.0311 3.13805 16.0313 3.71207V5.53775H0.84375V3.71207C0.843885 3.13805 1.30768 2.67203 1.88156 2.669ZM14.9934 14.7346H1.88156C1.30967 14.7359 0.844932 14.2732 0.84375 13.7013V6.3815H16.0313V13.701C16.0301 14.2729 15.5657 14.7357 14.9937 14.7346H14.9934Z" fill="#202020"/>
</g>
</g>
<defs>
<clipPath id="clip0_215_8008">
<rect width="18" height="18" fill="white"/>
</clipPath>
</defs>
</svg>
