<svg width="30" height="30" viewBox="0 0 30 30" fill="none" xmlns="http://www.w3.org/2000/svg">
<rect width="30" height="30" rx="6" fill="#FCBC40"/>
<g clip-path="url(#clip0_207_8101)">
<path d="M15 6.75C11.583 6.75 8.8125 9.52045 8.8125 12.9375C8.8125 14.283 9.25362 15.5177 9.98684 16.5288C9.99998 16.5531 10.002 16.5801 10.017 16.6033L14.142 22.7908C14.3333 23.0778 14.6556 23.25 15 23.25C15.3444 23.25 15.6667 23.0778 15.858 22.7908L19.983 16.6033C19.9982 16.5801 20 16.5531 20.0132 16.5288C20.7464 15.5177 21.1875 14.283 21.1875 12.9375C21.1875 9.52045 18.417 6.75 15 6.75ZM15 15C13.861 15 12.9375 14.0765 12.9375 12.9375C12.9375 11.7985 13.861 10.875 15 10.875C16.139 10.875 17.0625 11.7985 17.0625 12.9375C17.0625 14.0765 16.139 15 15 15Z" fill="#202020"/>
</g>
<defs>
<clipPath id="clip0_207_8101">
<rect width="16.5" height="16.5" fill="white" transform="translate(6.75 6.75)"/>
</clipPath>
</defs>
</svg>
