<svg width="30" height="30" viewBox="0 0 30 30" fill="none" xmlns="http://www.w3.org/2000/svg">
<rect width="30" height="30" rx="6" fill="#E6E6E6"/>
<path d="M12.62 21.852V9H15.626C17.126 9 18.254 9.294 19.01 9.882C19.778 10.458 20.162 11.346 20.162 12.546C20.162 13.386 19.97 14.088 19.586 14.652C19.214 15.216 18.668 15.642 17.948 15.93C17.24 16.206 16.382 16.344 15.374 16.344H13.664V21.852H12.62ZM11 19.224V18.414H16.742V19.224H11ZM11 16.344V15.444H14.51V16.344H11ZM15.248 15.444C16.028 15.444 16.706 15.36 17.282 15.192C17.858 15.012 18.302 14.712 18.614 14.292C18.938 13.872 19.1 13.302 19.1 12.582C19.1 11.658 18.806 10.98 18.218 10.548C17.642 10.116 16.742 9.9 15.518 9.9H13.664V15.444H15.248Z" fill="#202020"/>
</svg>
