<svg width="40.000000" height="40.000000" viewBox="0 0 40 40" fill="none" xmlns="http://www.w3.org/2000/svg" xmlns:xlink="http://www.w3.org/1999/xlink">
	<desc>
			Created with Pixso.
	</desc>
	<defs>
		<clipPath id="clip142_4975">
			<rect id="icon" rx="20.000000" width="40.000000" height="40.000000" fill="white" fill-opacity="0"/>
		</clipPath>
	</defs>
	<rect id="icon" rx="20.000000" width="40.000000" height="40.000000" fill="#D2323E" fill-opacity="1.000000"/>
	<g clip-path="url(#clip142_4975)">
		<path id="Vector" d="M21.0552 9.73975C22.2095 9.7428 22.7954 9.74902 23.3013 9.76331L23.5 9.77051C23.73 9.77869 23.9565 9.78894 24.2305 9.80127C25.3223 9.85266 26.0669 10.025 26.7207 10.2784C27.3979 10.5389 27.9683 10.892 28.5386 11.4614C29.0605 11.9742 29.4639 12.5947 29.7217 13.2794C29.9751 13.933 30.1475 14.6779 30.1987 15.7706C30.2109 16.0435 30.2212 16.2703 30.2295 16.5011L30.2358 16.7002C30.251 17.205 30.2573 17.7908 30.2593 18.9451L30.2603 19.7104L30.2603 21.0544C30.2627 21.8029 30.2549 22.5513 30.2368 23.2994L30.2305 23.4984C30.2222 23.7292 30.2119 23.9561 30.1997 24.2289C30.1484 25.3217 29.9741 26.0654 29.7217 26.7201C29.4648 27.4052 29.061 28.0258 28.5386 28.5381C28.0259 29.0597 27.4053 29.4634 26.7207 29.7211C26.0669 29.9745 25.3223 30.147 24.2305 30.1982C23.9873 30.2097 23.7437 30.22 23.5 30.229L23.3013 30.2351C22.7954 30.2495 22.2095 30.2567 21.0552 30.2588L20.29 30.2598L18.9468 30.2598C18.1982 30.2623 17.4497 30.2545 16.7012 30.2362L16.502 30.23C16.2583 30.2208 16.0151 30.2102 15.7715 30.1982C14.6797 30.147 13.9351 29.9745 13.2803 29.7211C12.5957 29.464 11.9756 29.0602 11.4634 28.5381C10.9414 28.0254 10.5371 27.405 10.2793 26.7201C10.0259 26.0665 9.85352 25.3217 9.80225 24.2289C9.79102 23.9855 9.78076 23.7419 9.77148 23.4984L9.7666 23.2994C9.74756 22.5513 9.73926 21.8029 9.74072 21.0544L9.74072 18.9451C9.73779 18.1967 9.74561 17.4482 9.76318 16.7002L9.77051 16.5011C9.77881 16.2703 9.78906 16.0435 9.80127 15.7706C9.85254 14.6779 10.0249 13.9341 10.2783 13.2794C10.5361 12.594 10.9409 11.9734 11.4644 11.4614C11.9766 10.9396 12.5962 10.5359 13.2803 10.2784C13.9351 10.025 14.6787 9.85266 15.7715 9.80127C16.0444 9.78894 16.272 9.77869 16.502 9.77051L16.7012 9.7644C17.4492 9.74609 18.1973 9.73828 18.9458 9.74072L21.0552 9.73975ZM20.0005 14.8698C18.6401 14.8698 17.3354 15.4103 16.373 16.3723C15.4111 17.3344 14.8706 18.6392 14.8706 19.9998C14.8706 21.3604 15.4111 22.6652 16.373 23.6272C17.3354 24.5892 18.6401 25.1298 20.0005 25.1298C21.3608 25.1298 22.666 24.5892 23.6279 23.6272C24.5898 22.6652 25.1304 21.3604 25.1304 19.9998C25.1304 18.6392 24.5898 17.3344 23.6279 16.3723C22.666 15.4103 21.3608 14.8698 20.0005 14.8698ZM20.0005 16.9218C20.4048 16.9216 20.8052 17.0012 21.1782 17.1559C21.5518 17.3104 21.8911 17.5371 22.1772 17.8229C22.4629 18.1086 22.6899 18.448 22.8447 18.8214C22.999 19.1948 23.0791 19.5951 23.0791 19.9993C23.0791 20.4034 22.9995 20.8037 22.8447 21.1772C22.6904 21.5507 22.4634 21.89 22.1777 22.1759C21.8921 22.4618 21.5527 22.6885 21.1792 22.8433C20.8062 22.998 20.4058 23.0776 20.0015 23.0778C19.1851 23.0778 18.4023 22.7534 17.8252 22.1763C17.248 21.599 16.9238 20.816 16.9238 19.9998C16.9238 19.1835 17.248 18.4005 17.8252 17.8232C18.4023 17.2461 19.1851 16.9218 20.0015 16.9218L20.0005 16.9218ZM25.3877 13.3308C25.0479 13.3308 24.7217 13.4658 24.481 13.7064C24.2407 13.9469 24.1055 14.2731 24.1055 14.6133C24.1055 14.9534 24.2407 15.2797 24.481 15.5201C24.7217 15.7606 25.0479 15.8958 25.3877 15.8958C25.728 15.8958 26.0542 15.7606 26.2949 15.5201C26.5352 15.2797 26.6704 14.9534 26.6704 14.6133C26.6704 14.2731 26.5352 13.9469 26.2949 13.7064C26.0542 13.4658 25.728 13.3308 25.3877 13.3308Z" fill="#FFFFFF" fill-opacity="1.000000" fill-rule="nonzero"/>
	</g>
</svg>
