<svg width="40" height="40" viewBox="0 0 40 40" fill="none" xmlns="http://www.w3.org/2000/svg">
<rect width="40" height="40" rx="6" fill="#FCBC40"/>
<path fill-rule="evenodd" clip-rule="evenodd" d="M11 19C11 15.2288 11 13.3431 12.1716 12.1716C13.3431 11 15.2288 11 19 11H21C24.7712 11 26.6569 11 27.8284 12.1716C29 13.3431 29 15.2288 29 19V21C29 24.7712 29 26.6569 27.8284 27.8284C26.6569 29 24.7712 29 21 29H19C15.2288 29 13.3431 29 12.1716 27.8284C11 26.6569 11 24.7712 11 21V19ZM26 15.5C26 16.3284 25.3284 17 24.5 17C23.6716 17 23 16.3284 23 15.5C23 14.6716 23.6716 14 24.5 14C25.3284 14 26 14.6716 26 15.5ZM22 21C22 22.1046 21.1046 23 20 23C18.8954 23 18 22.1046 18 21C18 19.8954 18.8954 19 20 19C21.1046 19 22 19.8954 22 21ZM24 21C24 23.2091 22.2091 25 20 25C17.7909 25 16 23.2091 16 21C16 18.7909 17.7909 17 20 17C22.2091 17 24 18.7909 24 21Z" fill="#202020"/>
</svg>
