<svg width="16.250000" height="17.916748" viewBox="0 0 16.25 17.9167" fill="none" xmlns="http://www.w3.org/2000/svg" xmlns:xlink="http://www.w3.org/1999/xlink">
	<desc>
			Created with Pixso.
	</desc>
	<defs/>
	<path id="Vector" d="M8.125 0C5.47998 0 3.33337 2.14673 3.33337 4.79175C3.33337 7.43677 5.47998 9.58325 8.125 9.58325C10.77 9.58325 12.9166 7.43677 12.9166 4.79175C12.9166 2.14673 10.77 0 8.125 0ZM8.125 1.25C10.08 1.25 11.6666 2.83667 11.6666 4.79175C11.6666 6.74658 10.08 8.33325 8.125 8.33325C6.17004 8.33325 4.58337 6.74658 4.58337 4.79175C4.58337 2.83667 6.17004 1.25 8.125 1.25ZM16.25 15.625C16.25 14.1331 15.6573 12.7024 14.6024 11.6475C13.5476 10.5925 12.1168 10 10.625 10L5.625 10C4.13318 10 2.70239 10.5925 1.64758 11.6475C0.592651 12.7024 0 14.1331 0 15.625C0 16.2324 0.241699 16.8159 0.670776 17.2458C1.10107 17.6753 1.68384 17.9165 2.29163 17.9167L13.9584 17.9167C14.5658 17.9167 15.1492 17.675 15.5792 17.2458C16.0085 16.8157 16.2498 16.2327 16.25 15.625ZM15 15.625C14.9995 15.9011 14.8896 16.1658 14.6945 16.3611C14.4991 16.5564 14.2345 16.6663 13.9584 16.6667L2.29163 16.6667C2.0155 16.6663 1.75085 16.5564 1.55554 16.3611C1.36035 16.1658 1.25049 15.9011 1.25 15.625C1.24963 15.0503 1.36267 14.4812 1.5824 13.9504C1.80212 13.4194 2.12439 12.937 2.53064 12.5308C2.93701 12.1243 3.41943 11.802 3.95032 11.5823C4.48132 11.3625 5.05042 11.2498 5.625 11.25L10.625 11.25C11.1996 11.2498 11.7687 11.3625 12.2997 11.5823C12.8306 11.802 13.313 12.1243 13.7194 12.5308C14.1256 12.937 14.4479 13.4194 14.6676 13.9504C14.8875 14.4812 15.0004 15.0503 15 15.625Z" fill="#FFFFFF" fill-opacity="1.000000" fill-rule="evenodd"/>
</svg>
