<svg width="33.000000" height="33.000000" viewBox="0 0 33 33" fill="none" xmlns="http://www.w3.org/2000/svg" xmlns:xlink="http://www.w3.org/1999/xlink">
	<desc>
			Created with Pixso.
	</desc>
	<defs>
		<clipPath id="clip142_2329">
			<rect id="Laag_1" width="33.000000" height="33.000000" fill="white" fill-opacity="0"/>
		</clipPath>
	</defs>
	<rect id="Laag_1" width="33.000000" height="33.000000" fill="#FFFFFF" fill-opacity="0"/>
	<g clip-path="url(#clip142_2329)">
		<path id="Vector" d="M32.3497 28.9888L32.3497 29.0547L32.4113 29.0547C32.4229 29.0549 32.4342 29.052 32.4443 29.0463C32.4482 29.0435 32.4515 29.0397 32.4537 29.0353C32.4558 29.0309 32.4569 29.026 32.4567 29.0211C32.4569 29.0162 32.4558 29.0115 32.4536 29.0072C32.4515 29.0028 32.4482 28.9991 32.4443 28.9965C32.4343 28.9905 32.4229 28.9875 32.4113 28.988L32.3497 28.988L32.3497 28.9888ZM32.412 28.942C32.4384 28.9404 32.4645 28.948 32.4858 28.9635C32.4944 28.9705 32.5012 28.9795 32.5057 28.9896C32.5103 28.9998 32.5123 29.0107 32.5117 29.0219C32.5122 29.0314 32.5105 29.0409 32.507 29.0498C32.5033 29.0586 32.4979 29.0667 32.491 29.0732C32.4745 29.0875 32.4537 29.0962 32.4319 29.0978L32.5144 29.1919L32.4509 29.1919L32.375 29.0984L32.3503 29.0984L32.3503 29.1919L32.2972 29.1919L32.2972 28.9421L32.4127 28.9421L32.412 28.942ZM32.3954 29.278C32.4233 29.2782 32.4509 29.2726 32.4764 29.2615C32.5011 29.2509 32.5234 29.2357 32.5425 29.2168C32.5615 29.1979 32.5767 29.1754 32.5872 29.1508C32.6088 29.0985 32.6088 29.0397 32.5872 28.9874C32.5765 28.9628 32.5613 28.9404 32.5425 28.9214C32.5234 28.9025 32.5011 28.8873 32.4764 28.8767C32.4508 28.8662 32.4232 28.8608 32.3954 28.8612C32.3672 28.861 32.3391 28.8662 32.313 28.8767C32.2877 28.8871 32.2649 28.9022 32.2455 28.9214C32.2163 28.9513 32.1965 28.9893 32.1887 29.0303C32.1809 29.0713 32.1853 29.1138 32.2014 29.1523C32.2114 29.1771 32.2264 29.1996 32.2455 29.2184C32.2649 29.2375 32.2877 29.2527 32.313 29.2631C32.339 29.2743 32.3671 29.2799 32.3954 29.2797L32.3954 29.278ZM32.3954 28.8011C32.468 28.801 32.5376 28.8295 32.5894 28.8804C32.6143 28.9047 32.6342 28.9338 32.6477 28.9659C32.6619 28.9989 32.6691 29.0344 32.6691 29.0703C32.6691 29.1062 32.6619 29.1417 32.6477 29.1747C32.6338 29.2067 32.614 29.2357 32.5894 29.2603C32.564 29.2845 32.5345 29.3042 32.5023 29.3181C32.4685 29.3324 32.4321 29.3397 32.3954 29.3395C32.3583 29.3397 32.3214 29.3325 32.2872 29.3181C32.2546 29.3044 32.225 29.2849 32.1996 29.2603C32.1749 29.2347 32.1554 29.2047 32.142 29.1719C32.1279 29.1389 32.1206 29.1034 32.1206 29.0675C32.1206 29.0316 32.1279 28.9961 32.142 28.9631C32.1556 28.931 32.1754 28.9019 32.2004 28.8776C32.2253 28.8525 32.2552 28.8329 32.2881 28.8197C32.3223 28.8053 32.3591 28.7981 32.3962 28.7983L32.3954 28.8011ZM7.13062 27.837C7.13062 27.361 7.4425 26.97 7.95215 26.97C8.43921 26.97 8.76794 27.3441 8.76794 27.837C8.76794 28.3298 8.43921 28.7041 7.95215 28.7041C7.4425 28.7041 7.13062 28.313 7.13062 27.837ZM9.32312 27.837L9.32312 26.4824L8.73425 26.4824L8.73425 26.8124C8.54749 26.5685 8.26416 26.4155 7.87891 26.4155C7.11987 26.4155 6.52429 27.0109 6.52429 27.8376C6.52429 28.6646 7.11963 29.2598 7.87891 29.2598C8.26404 29.2598 8.54749 29.1067 8.73425 28.863L8.73425 29.1919L9.32251 29.1919L9.32251 27.837L9.32312 27.837ZM29.2208 27.837C29.2208 27.361 29.5327 26.97 30.0425 26.97C30.5302 26.97 30.8583 27.3441 30.8583 27.837C30.8583 28.3298 30.5302 28.7041 30.0425 28.7041C29.5328 28.7041 29.2208 28.313 29.2208 27.837ZM31.4141 27.837L31.4141 25.395L30.8246 25.395L30.8246 26.8124C30.6378 26.5685 30.3546 26.4155 29.9692 26.4155C29.2103 26.4155 28.6146 27.0109 28.6146 27.8376C28.6146 28.6646 29.21 29.2598 29.9692 29.2598C30.3546 29.2598 30.6378 29.1067 30.8246 28.863L30.8246 29.1919L31.4141 29.1919L31.4141 27.837ZM16.632 26.942C17.0115 26.942 17.2552 27.1799 17.3174 27.5989L15.9122 27.5989C15.9751 27.2079 16.2125 26.942 16.6322 26.942L16.632 26.942ZM16.6439 26.4141C15.8502 26.4141 15.295 26.9916 15.295 27.8362C15.295 28.6974 15.8726 29.2583 16.6833 29.2583C17.0912 29.2583 17.4647 29.1565 17.7935 28.8788L17.5049 28.4424C17.2778 28.6239 16.9888 28.7257 16.7169 28.7257C16.3375 28.7257 15.9919 28.5499 15.907 28.0624L17.9178 28.0624C17.9236 27.9891 17.9296 27.9153 17.9296 27.8361C17.9236 26.9917 17.4016 26.4139 16.6436 26.4139L16.6439 26.4141ZM23.7534 27.8361C23.7534 27.36 24.0653 26.969 24.575 26.969C25.062 26.969 25.3907 27.3431 25.3907 27.8361C25.3907 28.3289 25.062 28.7031 24.575 28.7031C24.0653 28.7031 23.7533 28.312 23.7533 27.8361L23.7534 27.8361ZM25.9458 27.8361L25.9458 26.4824L25.3572 26.4824L25.3572 26.8124C25.1698 26.5685 24.8871 26.4155 24.5018 26.4155C23.7428 26.4155 23.1472 27.0109 23.1472 27.8376C23.1472 28.6646 23.7426 29.2598 24.5018 29.2598C24.8871 29.2598 25.1698 29.1067 25.3572 28.863L25.3572 29.1919L25.9459 29.1919L25.9459 27.837L25.9458 27.8361ZM20.4279 27.8361C20.4279 28.6576 20.9998 29.2582 21.8726 29.2582C22.2804 29.2582 22.5522 29.1674 22.8461 28.9353L22.5632 28.4592C22.3422 28.6182 22.11 28.7031 21.8538 28.7031C21.3837 28.6974 21.038 28.3574 21.038 27.8361C21.038 27.3146 21.3837 26.9749 21.8538 26.969C22.1094 26.969 22.3416 27.054 22.5632 27.2128L22.8461 26.7368C22.5518 26.5046 22.2799 26.4139 21.8726 26.4139C20.9998 26.4139 20.4279 27.0143 20.4279 27.8361ZM28.0195 26.4139C27.6797 26.4139 27.4585 26.5728 27.3055 26.8107L27.3055 26.4824L26.7219 26.4824L26.7219 29.1903L27.3114 29.1903L27.3114 27.6724C27.3114 27.2242 27.504 26.9752 27.8889 26.9752C28.015 26.9734 28.1401 26.9966 28.2572 27.0433L28.4387 26.4883C28.3083 26.437 28.1384 26.4144 28.0192 26.4144L28.0195 26.4139ZM12.2346 26.6978C11.9513 26.5109 11.5609 26.4144 11.1302 26.4144C10.4442 26.4144 10.0024 26.7433 10.0024 27.2812C10.0024 27.7229 10.3313 27.9952 10.9369 28.0802L11.2151 28.1199C11.538 28.1652 11.6904 28.2501 11.6904 28.4031C11.6904 28.6125 11.476 28.7319 11.0731 28.7319C10.6653 28.7319 10.371 28.6017 10.1724 28.4487L9.89575 28.9078C10.2186 29.1458 10.6265 29.2593 11.0682 29.2593C11.8503 29.2593 12.3036 28.891 12.3036 28.3754C12.3036 27.8994 11.9468 27.6504 11.3574 27.5654L11.08 27.5251C10.825 27.4922 10.6207 27.4408 10.6207 27.2594C10.6207 27.0614 10.8132 26.9423 11.1364 26.9423C11.4821 26.9423 11.8167 27.0726 11.9806 27.1744L12.2356 26.6984L12.2346 26.6978ZM19.833 26.4149C19.4933 26.4149 19.272 26.5737 19.1198 26.8118L19.1198 26.4824L18.5361 26.4824L18.5361 29.1903L19.125 29.1903L19.125 27.6724C19.125 27.2242 19.3175 26.9752 19.7025 26.9752C19.8285 26.9734 19.9537 26.9966 20.0708 27.0433L20.2523 26.4883C20.1219 26.437 19.9519 26.4144 19.8326 26.4144L19.833 26.4149ZM14.8077 26.4824L13.8448 26.4824L13.8448 25.6609L13.2495 25.6609L13.2495 26.4824L12.7002 26.4824L12.7002 27.0206L13.2495 27.0206L13.2495 28.256C13.2495 28.8843 13.4934 29.2585 14.1899 29.2585C14.4456 29.2585 14.74 29.1793 14.9268 29.0491L14.7566 28.5449C14.5809 28.6467 14.3883 28.698 14.2352 28.698C13.9408 28.698 13.8448 28.5165 13.8448 28.2448L13.8448 27.0211L14.8077 27.0211L14.8077 26.4824ZM6.00354 29.191L6.00354 27.4915C6.00354 26.8514 5.5957 26.4208 4.93811 26.415C4.59241 26.4093 4.23584 26.5168 3.98621 26.8969C3.79944 26.5966 3.50513 26.415 3.09131 26.415C2.802 26.415 2.51941 26.5 2.2981 26.8171L2.2981 26.4824L1.70874 26.4824L1.70874 29.1903L2.30273 29.1903L2.30273 27.6888C2.30273 27.2188 2.56348 26.969 2.96606 26.969C3.35706 26.969 3.55493 27.2239 3.55493 27.6829L3.55493 29.1901L4.15027 29.1901L4.15027 27.6885C4.15027 27.2184 4.422 26.9686 4.81287 26.9686C5.21497 26.9686 5.40686 27.2235 5.40686 27.6826L5.40686 29.1897L6.00354 29.191Z" fill="#C2C3CA" fill-opacity="1.000000" fill-rule="nonzero"/>
		<path id="Vector" d="M32.6857 20.1831L32.6857 19.7871L32.5825 19.7871L32.4633 20.0588L32.3446 19.7871L32.2411 19.7871L32.2411 20.1831L32.3145 20.1831L32.3145 19.8848L32.4259 20.1422L32.5018 20.1422L32.6134 19.8842L32.6134 20.1831L32.686 20.1831L32.6857 20.1831ZM32.0314 20.1831L32.0314 19.855L32.1635 19.855L32.1635 19.7881L31.8262 19.7881L31.8262 19.855L31.9581 19.855L31.9581 20.1831L32.0308 20.1831L32.0314 20.1831Z" fill="#F79410" fill-opacity="1.000000" fill-rule="nonzero"/>
		<path id="Vector" d="M20.9645 21.8817L12.0403 21.8817L12.0403 5.84375L20.9646 5.84375L20.9645 21.8817Z" fill="#C2C3CA" fill-opacity="1.000000" fill-rule="nonzero"/>
		<path id="Vector" d="M12.606 13.8629C12.606 10.6096 14.1293 7.71155 16.5013 5.84387C14.7058 4.4281 12.485 3.65967 10.1985 3.66309C4.56592 3.66309 0 8.22961 0 13.8629C0 19.4962 4.56592 24.0627 10.1985 24.0627C12.4851 24.0662 14.7059 23.2977 16.5015 21.882C14.1296 20.0146 12.606 17.1163 12.606 13.8629Z" fill="#C2C3CA" fill-opacity="1.000000" fill-rule="nonzero"/>
		<path id="Vector" d="M33.0043 13.8629C33.0043 19.4962 28.4384 24.0627 22.8058 24.0627C20.5189 24.066 18.2979 23.2977 16.502 21.882C18.8746 20.0143 20.3979 17.1163 20.3979 13.8629C20.3979 10.6094 18.8746 7.71155 16.502 5.84387C18.2979 4.4281 20.5188 3.65979 22.8057 3.66309C28.4382 3.66309 33.0042 8.22961 33.0042 13.8629L33.0043 13.8629Z" fill="#C2C3CA" fill-opacity="1.000000" fill-rule="nonzero"/>
	</g>
</svg>
