<svg width="65.000000" height="20.000000" viewBox="0 0 65 20" fill="none" xmlns="http://www.w3.org/2000/svg" xmlns:xlink="http://www.w3.org/1999/xlink">
	<desc>
			Created with Pixso.
	</desc>
	<defs>
		<clipPath id="clip142_2342">
			<rect id="Frame" width="65.000000" height="20.000000" fill="white" fill-opacity="0"/>
		</clipPath>
	</defs>
	<rect id="Frame" width="65.000000" height="20.000000" fill="#FFFFFF" fill-opacity="0"/>
	<g clip-path="url(#clip142_2342)">
		<path id="Vector" d="M5.0376 2.16663L10.4001 2.16663C10.8876 2.16663 12.3501 2 13.0001 4.33337C13.4876 5.83337 14.1376 8.16663 15.1126 11.6666L15.4376 11.6666C16.4126 8 17.2251 5.5 17.5501 4.33337C18.2001 2 19.8251 2.16663 20.4751 2.16663L25.5126 2.16663L25.5126 18.1666L20.3126 18.1666L20.3126 8.66663L19.9876 8.66663L17.2251 18.1666L13.3251 18.1666L10.5626 8.66663L10.0751 8.66663L10.0751 18.1666L5.0376 18.1666L5.0376 2.16663ZM27.6251 2.16663L32.8251 2.16663L32.8251 11.6666L33.3126 11.6666L36.7251 3.83337C37.3751 2.33337 38.8376 2.16663 38.8376 2.16663L43.7126 2.16663L43.7126 18.1666L38.5126 18.1666L38.5126 8.66663L38.1876 8.66663L34.7751 16.5C34.1251 18 32.5001 18.1666 32.5001 18.1666L27.6251 18.1666L27.6251 2.16663ZM50.7001 13.3334L50.7001 18.1666L45.8251 18.1666L45.8251 9.83337L61.7501 9.83337C61.1001 11.8334 58.8251 13.3334 56.2251 13.3334L50.7001 13.3334Z" fill="#C2C3CA" fill-opacity="1.000000" fill-rule="nonzero"/>
		<path id="Vector" d="M62.075 8.83362C62.725 5.83362 60.775 2.16699 56.55 2.16699L45.5 2.16699C45.825 5.66699 48.75 8.83362 51.8375 8.83362L62.075 8.83362Z" fill="#C2C3CA" fill-opacity="1.000000" fill-rule="nonzero"/>
	</g>
</svg>
