<svg width="31" height="31" viewBox="0 0 31 31" fill="none" xmlns="http://www.w3.org/2000/svg">
<path d="M29.0213 22.5762C30.1141 22.5762 31 23.3305 31 24.261C31 25.1914 30.1141 25.9457 29.0213 25.9457H1.97871C0.885896 25.9457 0 25.1914 0 24.261C0 23.3305 0.885896 22.5762 1.97871 22.5762H29.0213ZM26.383 5.05444C27.8401 5.05444 29.0213 6.21491 29.0213 7.64642V20.6063C29.0213 21.322 28.4307 21.9023 27.7021 21.9023H3.29787C2.56933 21.9023 1.97871 21.322 1.97871 20.6063V7.64642C1.97871 6.21491 3.15994 5.05444 4.61703 5.05444H26.383ZM15.5218 8.42401C14.8065 8.42401 14.1231 8.56137 13.4968 8.81041C12.846 9.12893 13.1936 8.95295 12.9086 9.10259C12.6164 9.25597 12.8318 9.13667 12.3855 9.40929C8.09376 12.2486 10.2802 19.3091 15.522 19.2055C22.6815 19.0787 22.6807 8.54996 15.5218 8.42401ZM13.8337 16.2085C14.1566 16.4322 14.5261 16.5941 14.9253 16.6755V17.9835C14.1694 17.8782 13.4767 17.5758 12.9021 17.1304L13.8337 16.2085ZM17.2099 16.2086L18.1414 17.1304C17.5669 17.5758 16.8742 17.8782 16.1183 17.9835V16.6755C16.5174 16.5941 16.887 16.4322 17.2099 16.2086ZM19.7492 14.2937C19.6646 15.0296 19.3875 15.7085 18.9691 16.2799L18.0306 15.3512C18.2298 15.0339 18.369 14.6763 18.4332 14.2937H19.7492ZM12.6104 14.2937C12.6745 14.6763 12.8138 15.0338 13.013 15.3512L12.0745 16.2798C11.6561 15.7085 11.379 15.0296 11.2944 14.2937H12.6104ZM15.5219 12.0746C17.8331 12.1156 17.8327 15.5143 15.5218 15.5549C13.2105 15.5139 13.2109 12.1153 15.5219 12.0746ZM12.171 11.2227L13.1026 12.1444C12.898 12.4336 12.745 12.7608 12.6568 13.1132H11.3261C11.4461 12.4086 11.7433 11.7628 12.171 11.2227ZM18.8726 11.2227C19.3003 11.7628 19.5975 12.4086 19.7175 13.1132H18.3868C18.2987 12.7608 18.1456 12.4336 17.941 12.1444L18.8726 11.2227ZM14.9253 9.64603V10.9541C14.5809 11.0243 14.2585 11.1545 13.9691 11.3324L13.0306 10.4037C13.5787 10.0107 14.2249 9.74369 14.9253 9.64603ZM16.1183 9.64607C16.8187 9.74374 17.4649 10.0107 18.013 10.4038L17.0745 11.3324C16.7851 11.1545 16.4627 11.0244 16.1183 10.9542V9.64607Z" fill="white"/>
</svg>
