<svg width="30" height="30" viewBox="0 0 30 30" fill="none" xmlns="http://www.w3.org/2000/svg">
<rect width="30" height="30" rx="6" fill="#FCBC40"/>
<path d="M18.797 15.7552L18.4174 16.1326C18.4174 16.1326 17.5152 17.0297 15.0527 14.5811C12.5903 12.1326 13.4924 11.2356 13.4924 11.2356L13.7314 10.9979C14.3202 10.4124 14.3757 9.4725 13.862 8.78631L12.8112 7.38265C12.1754 6.53335 10.9468 6.42115 10.218 7.14577L8.91004 8.44634C8.54869 8.80564 8.30654 9.2714 8.3359 9.78809C8.41103 11.1099 9.00909 13.954 12.3463 17.2722C15.8852 20.7911 19.2058 20.9309 20.5637 20.8043C20.9932 20.7643 21.3667 20.5456 21.6677 20.2462L22.8516 19.0692C23.6507 18.2747 23.4253 16.9125 22.4029 16.3567L20.8108 15.4912C20.1395 15.1263 19.3217 15.2335 18.797 15.7552Z" fill="#202020"/>
</svg>
