<svg width="107.503143" height="86.999969" viewBox="0 0 107.503 87" fill="none" xmlns="http://www.w3.org/2000/svg" xmlns:xlink="http://www.w3.org/1999/xlink">
	<desc>
			Created with Pixso.
	</desc>
	<defs/>
	<path id="“" d="M65.9426 87L65.9426 67.328C73.1465 66.4044 78.5032 63.7261 82.0127 59.293C85.3375 54.8599 87 49.5032 87 43.2229L63.7261 43.2229L63.7261 0L107.503 0L107.503 39.8981C107.503 53.5669 103.717 64.465 96.1433 72.5923C88.57 80.9044 78.5031 85.707 65.9426 87ZM1.93948 87L1.93948 67.328C9.14331 66.4044 14.5 63.7261 18.0095 59.293C21.5191 54.8599 23.2739 49.5032 23.2739 43.2229L0 43.2229L0 0L43.5 0L43.5 39.8981C43.5 53.5669 39.8057 64.465 32.4172 72.5923C24.8439 80.9044 14.6847 85.707 1.93948 87Z" fill="#F2F3F8" fill-opacity="1.000000" fill-rule="nonzero"/>
</svg>
