<svg width="90" height="64" viewBox="0 0 90 64" fill="none" xmlns="http://www.w3.org/2000/svg">
<path d="M0 64C1.61194 57.3823 3.31343 50.2422 5.10448 42.5796C6.89552 34.917 8.50746 27.4286 9.9403 20.1143C11.3731 12.8 12.5373 6.09523 13.4328 0L38.9552 0L40.8358 2.87348C39.2239 8.96872 37.1642 15.4993 34.6567 22.4653C32.1493 29.6054 29.3731 36.7456 26.3284 43.8857C23.2836 51.0258 20.3284 57.7306 17.4627 64L0 64ZM49.7015 64C51.3134 57.3823 53.0149 50.2422 54.806 42.5796C56.597 34.917 58.209 27.4286 59.6418 20.1143C61.0746 12.8 62.2388 6.09523 63.1343 0L88.3881 0L90 2.87348C88.3881 8.96872 86.3284 15.4993 83.8209 22.4653C81.3134 29.6054 78.6269 36.7456 75.7612 43.8857C72.7164 51.0258 69.7612 57.7306 66.8955 64L49.7015 64Z" fill="#E40604"/>
</svg>
