<svg width="30" height="30" viewBox="0 0 30 30" fill="none" xmlns="http://www.w3.org/2000/svg">
<rect width="30" height="30" rx="6" fill="#E6E6E6"/>
<path d="M15.3152 17.7698C15.7208 17.7698 16.0503 17.4388 16.0503 17.0328C16.0503 16.6278 15.7208 16.299 15.3152 16.299L11.985 13.8496L14.5802 17.0801C14.6043 17.4647 14.9247 17.7698 15.3152 17.7698ZM11.3296 19.9401H18.6703V21.6821H11.3296V19.9401Z" fill="#202020"/>
<path d="M21.364 10.9542C19.664 9.25427 17.4039 8.31812 15 8.31812C12.596 8.31812 10.3359 9.25427 8.636 10.9542C6.93611 12.654 6 14.9141 6 17.3181C6 18.8703 6.39105 20.3621 7.12528 21.6822H8.80742L10.0377 20.9718L9.4944 20.0306L7.91239 20.9441C7.35348 19.8559 7.03775 18.6232 7.03775 17.3181C7.03775 17.0871 7.04824 16.8586 7.06758 16.6325L8.95391 16.9651L9.14262 15.8949L7.23409 15.5584C7.57513 14.0526 8.34406 12.7075 9.40589 11.658L10.699 13.1991L11.5315 12.5006L10.2286 10.9479C11.4233 10.0507 12.8776 9.48175 14.4567 9.37487V11.436H15.5433V9.37487C17.1224 9.48184 18.5767 10.0508 19.7715 10.9479L18.4685 12.5006L19.301 13.1991L20.5941 11.658C21.6559 12.7075 22.4248 14.0526 22.7659 15.5583L20.8574 15.8949L21.0461 16.9651L22.9323 16.6324C22.9517 16.8585 22.9622 17.0871 22.9622 17.318C22.9622 18.6232 22.6466 19.8559 22.0876 20.944L20.5055 20.0307L19.9622 20.9718L21.1925 21.6821H22.8747C23.609 20.362 24 18.8702 24 17.318C24 14.9141 23.0638 12.654 21.364 10.9542Z" fill="#202020"/>
</svg>
