<svg width="55.000000" height="55.000000" viewBox="0 0 55 55" fill="none" xmlns="http://www.w3.org/2000/svg" xmlns:xlink="http://www.w3.org/1999/xlink">
	<desc>
			Created with Pixso.
	</desc>
	<defs>
		<clipPath id="clip142_2336">
			<rect id="Frame" width="55.000000" height="55.000000" fill="white" fill-opacity="0"/>
		</clipPath>
	</defs>
	<rect id="Frame" width="55.000000" height="55.000000" fill="#FFFFFF" fill-opacity="0"/>
	<g clip-path="url(#clip142_2336)">
		<path id="Vector" d="M24.4225 34.7585L20.6455 34.7585L23.0061 20.2515L26.7834 20.2515L24.4225 34.7585ZM17.4681 20.2515L13.8673 30.2295L13.4413 28.0808L13.4417 28.0817L12.1708 21.5576C12.1708 21.5576 12.0171 20.2515 10.379 20.2515L4.42627 20.2515L4.35645 20.4971C4.35645 20.4971 6.17676 20.8757 8.30725 22.1553L11.5886 34.7589L15.5239 34.7589L21.533 20.2515L17.4681 20.2515ZM47.1757 34.7585L50.6438 34.7585L47.6201 20.251L44.5839 20.251C43.1819 20.251 42.8404 21.3322 42.8404 21.3322L37.2073 34.7585L41.1446 34.7585L41.9319 32.6036L46.7333 32.6036L47.1757 34.7585ZM43.0197 29.6268L45.0042 24.198L46.1206 29.6268L43.0197 29.6268ZM37.5027 23.74L38.0417 20.6248C38.0417 20.6248 36.3785 19.9922 34.6447 19.9922C32.7703 19.9922 28.3193 20.8114 28.3193 24.7948C28.3193 28.5426 33.5433 28.5892 33.5433 30.5577C33.5433 32.5264 28.8575 32.1737 27.3112 30.9323L26.7496 34.1896C26.7496 34.1896 28.4361 35.0088 31.0128 35.0088C33.5903 35.0088 37.4786 33.6743 37.4786 30.0421C37.4786 26.2701 32.2076 25.9189 32.2076 24.2791C32.208 22.6387 35.8864 22.8495 37.5027 23.74Z" fill="#C2C3CA" fill-opacity="1.000000" fill-rule="nonzero"/>
		<path id="Vector" d="M13.4417 28.0812L12.1708 21.5571C12.1708 21.5571 12.0171 20.251 10.379 20.251L4.42627 20.251L4.35645 20.4966C4.35645 20.4966 7.21753 21.0896 9.96191 23.3112C12.5859 25.4347 13.4417 28.0812 13.4417 28.0812Z" fill="#C2C3CA" fill-opacity="1.000000" fill-rule="nonzero"/>
	</g>
</svg>
