<svg width="40" height="40" viewBox="0 0 40 40" fill="none" xmlns="http://www.w3.org/2000/svg">
<rect width="40" height="40" rx="6" fill="#FCBC40"/>
<path d="M31.4559 13.784C31.1859 14.633 30.8219 15.372 30.3659 16.043L30.3849 16.013C29.9369 16.7597 29.4019 17.6223 28.7799 18.601C28.2466 19.3737 27.9643 19.7737 27.9329 19.801C27.7949 19.974 27.6989 20.186 27.6659 20.419L27.6649 20.426C27.6919 20.638 27.7899 20.823 27.9329 20.961L28.3329 21.407C30.4729 23.6063 31.6766 25.1223 31.9439 25.955C31.9789 26.047 31.9989 26.153 31.9989 26.264C31.9989 26.458 31.9369 26.637 31.8319 26.784L31.8339 26.781C31.6579 26.962 31.4119 27.074 31.1399 27.074C31.1099 27.074 31.0789 27.073 31.0499 27.07H31.0539H28.4229C28.4219 27.07 28.4199 27.07 28.4179 27.07C28.0809 27.07 27.7709 26.952 27.5279 26.756L27.5309 26.758C27.1769 26.467 26.8619 26.152 26.5799 25.81L26.5709 25.798C26.1103 25.2773 25.7016 24.839 25.3449 24.483C24.1569 23.3537 23.2803 22.789 22.7149 22.789C22.6939 22.787 22.6699 22.786 22.6449 22.786C22.4799 22.786 22.3259 22.837 22.1989 22.924L22.2019 22.922C22.0979 23.052 22.0349 23.22 22.0349 23.401C22.0349 23.437 22.0369 23.471 22.0419 23.506V23.502C22.0149 23.816 21.9989 24.181 21.9989 24.55C21.9989 24.669 22.0009 24.787 22.0039 24.905V24.888V26.047C22.0139 26.094 22.0199 26.148 22.0199 26.203C22.0199 26.445 21.9099 26.661 21.7379 26.804L21.7369 26.805C21.3499 26.982 20.8979 27.086 20.4209 27.086C20.3189 27.086 20.2189 27.081 20.1199 27.072L20.1329 27.073C18.5589 27.043 17.0989 26.582 15.8579 25.805L15.8929 25.825C14.3819 24.907 13.1299 23.712 12.1759 22.3L12.1489 22.258C11.2429 21.056 10.3979 19.698 9.67793 18.266L9.60793 18.112C9.18693 17.31 8.75093 16.324 8.37493 15.31L8.31493 15.125C8.16193 14.669 8.05093 14.139 8.00493 13.59L8.00293 13.565C8.00293 13.0597 8.30026 12.807 8.89493 12.807H11.5249C11.5489 12.805 11.5769 12.804 11.6059 12.804C11.8539 12.804 12.0829 12.889 12.2639 13.032L12.2619 13.03C12.4619 13.249 12.6099 13.518 12.6829 13.818L12.6859 13.83C13.1699 15.197 13.6829 16.345 14.2729 17.445L14.2059 17.308C14.6879 18.278 15.2209 19.113 15.8289 19.884L15.8059 19.853C16.3393 20.5077 16.7553 20.835 17.0539 20.835C17.0629 20.836 17.0739 20.836 17.0859 20.836C17.2339 20.836 17.3629 20.756 17.4329 20.636L17.4339 20.634C17.5079 20.444 17.5509 20.223 17.5509 19.993C17.5509 19.944 17.5489 19.895 17.5449 19.847V19.853V15.974C17.5239 15.517 17.4119 15.09 17.2249 14.707L17.2329 14.726C17.1089 14.462 16.9599 14.234 16.7829 14.031L16.7859 14.035C16.6219 13.871 16.5099 13.656 16.4749 13.416L16.4739 13.41C16.4739 13.24 16.5519 13.087 16.6739 12.987L16.6749 12.986C16.7959 12.875 16.9579 12.808 17.1349 12.808H17.1429H21.2889C21.3109 12.805 21.3359 12.804 21.3619 12.804C21.5569 12.804 21.7319 12.892 21.8479 13.03L21.8489 13.031C21.9519 13.219 22.0129 13.444 22.0129 13.682C22.0129 13.72 22.0109 13.757 22.0079 13.794V13.789V18.962C22.0059 18.986 22.0049 19.014 22.0049 19.042C22.0049 19.226 22.0559 19.399 22.1439 19.546L22.1419 19.542C22.2149 19.65 22.3369 19.72 22.4749 19.72C22.6509 19.708 22.8119 19.65 22.9469 19.558L22.9439 19.56C23.2159 19.373 23.4499 19.16 23.6529 18.919L23.6569 18.914C24.2639 18.228 24.8239 17.47 25.3119 16.664L25.3509 16.594C25.6949 16.024 26.0669 15.322 26.4039 14.601L26.4659 14.454L26.9119 13.562C27.0669 13.116 27.4829 12.802 27.9719 12.802C27.9909 12.802 28.0099 12.802 28.0289 12.803H28.0259H30.6569C31.3676 12.803 31.6343 13.13 31.4569 13.784H31.4559Z" fill="#202020"/>
</svg>
