<svg width="40" height="40" viewBox="0 0 40 40" fill="none" xmlns="http://www.w3.org/2000/svg">
<rect width="40" height="40" rx="6" fill="#FCBC40"/>
<g clip-path="url(#clip0_207_8061)">
<path fill-rule="evenodd" clip-rule="evenodd" d="M17.7873 22.8448V16.6718C19.9787 17.703 21.676 18.6991 23.6833 19.773C22.0277 20.6912 19.9787 21.7215 17.7873 22.8448ZM30.0001 13.6017C29.6221 13.1036 28.9778 12.7159 28.2919 12.5876C26.2758 12.2047 13.6981 12.2037 11.6831 12.5876C11.133 12.6907 10.6432 12.94 10.2225 13.3272C8.4496 14.9727 9.00513 23.7969 9.43246 25.2263C9.61216 25.845 9.84446 26.2912 10.137 26.5841C10.5139 26.9714 11.03 27.238 11.6228 27.3576C13.2828 27.7009 21.8348 27.8929 28.2568 27.4091C28.8485 27.306 29.3722 27.0308 29.7853 26.6271C31.4245 24.9882 31.3128 15.6684 30.0001 13.6017Z" fill="#202020"/>
</g>
<defs>
<clipPath id="clip0_207_8061">
<rect width="22" height="22" fill="white" transform="translate(9 9)"/>
</clipPath>
</defs>
</svg>
